<svg viewBox="0 0 600 400" xmlns="http://www.w3.org/2000/svg">
  <!-- Definitions for gradients and filters -->
  <defs>
    <!-- Rich gold-to-royal blue gradient for background -->
    <linearGradient id="bgGradient" x1="0%" y1="0%" x2="100%" y2="100%">
      <stop offset="0%" stop-color="#0f172a" />
      <stop offset="100%" stop-color="#1e3a8a" />
    </linearGradient>
    
    <!-- Elegant gold gradient for text -->
    <linearGradient id="goldGradient" x1="0%" y1="0%" x2="100%" y2="100%">
      <stop offset="0%" stop-color="#f5d68f" />
      <stop offset="50%" stop-color="#f9dd9f" />
      <stop offset="100%" stop-color="#f7c153" />
    </linearGradient>
    
    <!-- Soft glow effect -->
    <filter id="glow" x="-30%" y="-30%" width="160%" height="160%">
      <feGaussianBlur in="SourceGraphic" stdDeviation="4" result="blur" />
      <feComponentTransfer in="blur" result="glow">
        <feFuncA type="linear" slope="0.4" intercept="0" />
      </feComponentTransfer>
      <feBlend in="SourceGraphic" in2="glow" mode="screen" />
    </filter>
    
    <!-- Shadow for depth -->
    <filter id="luxuryShadow" x="-20%" y="-20%" width="140%" height="140%">
      <feGaussianBlur in="SourceAlpha" stdDeviation="3" />
      <feOffset dx="2" dy="2" result="offsetblur" />
      <feComponentTransfer>
        <feFuncA type="linear" slope="0.5" />
      </feComponentTransfer>
      <feMerge>
        <feMergeNode />
        <feMergeNode in="SourceGraphic" />
      </feMerge>
    </filter>
    
    <!-- Pattern for decorative elements -->
    <pattern id="arabicPattern" x="0" y="0" width="40" height="40" patternUnits="userSpaceOnUse">
      <path d="M0 20 Q 10 0, 20 20 Q 30 40, 40 20 M20 0 Q 40 10, 20 20 Q 0 30, 20 40" stroke="#f5d68f" stroke-width="1" fill="none" opacity="0.3" />
    </pattern>
  </defs>
  
  <!-- Ornate background shape -->
  <path d="M300,50 
           C400,50 500,100 550,200 
           C500,300 400,350 300,350 
           C200,350 100,300 50,200 
           C100,100 200,50 300,50 Z" 
        fill="url(#bgGradient)" />
  
  <!-- Decorative border -->
  <path d="M300,60 
           C395,60 490,107 537,200 
           C490,293 395,340 300,340 
           C205,340 110,293 63,200 
           C110,107 205,60 300,60 Z" 
        fill="none" stroke="url(#goldGradient)" stroke-width="3" opacity="0.8" />
  
  <!-- Pattern-filled inner decoration -->
  <path d="M300,80 
           C380,80 460,120 500,200 
           C460,280 380,320 300,320 
           C220,320 140,280 100,200 
           C140,120 220,80 300,80 Z" 
        fill="url(#arabicPattern)" opacity="0.15" />
  
  <!-- Ornate decorative elements -->
  <g opacity="0.8" stroke="url(#goldGradient)" stroke-width="1.5" fill="none">
    <!-- Top decoration -->
    <path d="M250,90 C270,80 330,80 350,90 C330,100 270,100 250,90 Z" />
    <!-- Bottom decoration -->
    <path d="M250,310 C270,300 330,300 350,310 C330,320 270,320 250,310 Z" />
    <!-- Left decoration -->
    <path d="M90,180 C80,200 80,200 90,220 C100,200 100,200 90,180 Z" />
    <!-- Right decoration -->
    <path d="M510,180 C520,200 520,200 510,220 C500,200 500,200 510,180 Z" />
  </g>
  
  <!-- Highly decorative Arabic text بلديتي -->
  <g transform="translate(300, 170)" filter="url(#glow)">
    <text font-family="'Aref Ruqaa', 'Scheherazade New', serif" font-size="80" text-anchor="middle" fill="url(#goldGradient)" filter="url(#luxuryShadow)" dominant-baseline="middle">بلديتي</text>
  </g>
  
  <!-- Elegant Latin text -->
  <g transform="translate(300, 260)" filter="url(#glow)">
    <text font-family="'Cormorant Garamond', 'Cinzel', serif" font-size="45" font-weight="300" text-anchor="middle" fill="url(#goldGradient)" filter="url(#luxuryShadow)" letter-spacing="4" dominant-baseline="middle">BELEDIYTI</text>
  </g>
  
  <!-- Ornate divider between texts -->
  <g transform="translate(300, 215)">
    <path d="M-120,0 C-100,10 -80,-10 -60,0 C-40,10 -20,-10 0,0 C20,10 40,-10 60,0 C80,10 100,-10 120,0" stroke="url(#goldGradient)" stroke-width="2" fill="none" />
    <circle cx="-120" cy="0" r="3" fill="url(#goldGradient)" />
    <circle cx="120" cy="0" r="3" fill="url(#goldGradient)" />
  </g>
  
  <!-- Additional ornamental details -->
  <g opacity="0.4">
    <path d="M300,50 L300,20" stroke="url(#goldGradient)" stroke-width="2" />
    <path d="M300,350 L300,380" stroke="url(#goldGradient)" stroke-width="2" />
    <path d="M50,200 L20,200" stroke="url(#goldGradient)" stroke-width="2" />
    <path d="M550,200 L580,200" stroke="url(#goldGradient)" stroke-width="2" />
    <circle cx="300" cy="20" r="5" fill="url(#goldGradient)" />
    <circle cx="300" cy="380" r="5" fill="url(#goldGradient)" />
    <circle cx="20" cy="200" r="5" fill="url(#goldGradient)" />
    <circle cx="580" cy="200" r="5" fill="url(#goldGradient)" />
  </g>
</svg>